<svg xmlns="http://www.w3.org/2000/svg" viewBox="0 0 500 500"><g id="Floor--inject-121"><ellipse id="floor--inject-121" cx="250" cy="343.33" rx="231.53" ry="129.83" style="fill:#f0f0f0"></ellipse></g><g id="Shadows--inject-121"><path id="Shadow--inject-121" d="M41.31,358l63.5,36.66a2.25,2.25,0,0,0,2,0l167.62-96.77a2.27,2.27,0,0,1,2.06,0L382.44,359a2.33,2.33,0,0,0,2.06,0L448,322.35a.63.63,0,0,0,0-1.19l-171.46-99a2.25,2.25,0,0,0-2.05,0L41.31,356.78A.63.63,0,0,0,41.31,358Z" style="fill:#e0e0e0"></path><ellipse id="shadow--inject-121" cx="267.31" cy="378.81" rx="71.56" ry="41.31" style="fill:#e0e0e0"></ellipse></g><g id="Kitchen--inject-121"><g id="kitchen--inject-121"><path d="M388.53,341.46H378.28l1.64,10h0a1.87,1.87,0,0,0,1,1.24,5.49,5.49,0,0,0,5,0,1.89,1.89,0,0,0,1-1.24h0Z" style="fill:#455a64"></path><path d="M438.66,312.52H428.41l1.64,10h0a1.87,1.87,0,0,0,1,1.24,5.47,5.47,0,0,0,4.95,0,1.87,1.87,0,0,0,1-1.24h0Z" style="fill:#455a64"></path><path d="M100.65,377.11H110.9l-1.64,10h0a1.84,1.84,0,0,1-1,1.23,5.49,5.49,0,0,1-5,0,1.85,1.85,0,0,1-1-1.23h0Z" style="fill:#455a64"></path><path d="M50.52,348.17H60.77l-1.64,10h0a1.84,1.84,0,0,1-1,1.23,5.47,5.47,0,0,1-4.95,0,1.84,1.84,0,0,1-1-1.23h0Z" style="fill:#455a64"></path><polygon points="275.5 186.89 383.41 249.23 383.41 350.37 275.5 288.03 275.5 186.89" style="fill:#f5f5f5"></polygon><polygon points="47.99 251.45 47.99 352.59 105.83 385.99 105.83 284.85 47.99 251.45" style="fill:#f5f5f5"></polygon><polygon points="383.41 249.23 441.31 215.83 441.31 316.97 383.41 350.37 383.41 249.23" style="fill:#fafafa"></polygon><polygon points="105.83 385.99 275.5 288.03 275.5 186.89 105.83 284.85 105.83 385.99" style="fill:#fafafa"></polygon><polygon points="153.88 358.24 155.9 357.08 155.9 255.94 153.88 257.1 153.88 358.24" style="fill:#e6e6e6"></polygon><polygon points="225.31 316.97 227.33 315.81 227.33 214.67 225.31 215.83 225.31 316.97" style="fill:#e6e6e6"></polygon><polygon points="330.49 319.78 328.47 318.62 328.47 217.48 330.49 218.64 330.49 319.78" style="fill:#e6e6e6"></polygon><path d="M40.28,252.64v2.08a2.28,2.28,0,0,0,1,1.78l63.5,36.66a2.27,2.27,0,0,0,2.06,0l167.61-96.77a2.27,2.27,0,0,1,2.06,0l105.9,61.15a2.33,2.33,0,0,0,2.06,0L448,220.88a2.26,2.26,0,0,0,1-1.78V217a2.28,2.28,0,0,0-1-1.78l-171.46-99a2.25,2.25,0,0,0-2.05,0L41.31,250.86A2.28,2.28,0,0,0,40.28,252.64Z" style="fill:#EC2762"></path><path d="M40.28,252.64v2.08a2.28,2.28,0,0,0,1,1.78l63.5,36.66a2.27,2.27,0,0,0,2.06,0l167.61-96.77a2.27,2.27,0,0,1,2.06,0l105.9,61.15a2.33,2.33,0,0,0,2.06,0L448,220.88a2.26,2.26,0,0,0,1-1.78V217a2.28,2.28,0,0,0-1-1.78l-171.46-99a2.25,2.25,0,0,0-2.05,0L41.31,250.86A2.28,2.28,0,0,0,40.28,252.64Z" style="fill:#fff;opacity:0.65"></path><g style="opacity:0.5"><path d="M105.84,289v4.46a2.17,2.17,0,0,1-1-.24L41.31,256.5a2.25,2.25,0,0,1-1-1.78v-2.08a2.33,2.33,0,0,1,.83-1.65c-.37.33-.3.77.19,1.06l63.5,36.67A2.14,2.14,0,0,0,105.84,289Z" style="fill:#EC2762"></path><path d="M383.47,253.33v4.45a2,2,0,0,1-1-.25l-105.9-61.14a2.07,2.07,0,0,0-1-.25v-4.45a2.07,2.07,0,0,1,1,.25l105.9,61.14A2,2,0,0,0,383.47,253.33Z" style="fill:#EC2762"></path></g><path d="M41.31,252.05l63.5,36.66a2.25,2.25,0,0,0,2,0l167.62-96.78a2.33,2.33,0,0,1,2.06,0l105.9,61.15a2.27,2.27,0,0,0,2.06,0L448,216.43a.63.63,0,0,0,0-1.19l-171.46-99a2.25,2.25,0,0,0-2.05,0L41.31,250.86A.63.63,0,0,0,41.31,252.05Z" style="fill:#EC2762"></path><path d="M41.31,252.05l63.5,36.66a2.25,2.25,0,0,0,2,0l167.62-96.78a2.33,2.33,0,0,1,2.06,0l105.9,61.15a2.27,2.27,0,0,0,2.06,0L448,216.43a.63.63,0,0,0,0-1.19l-171.46-99a2.25,2.25,0,0,0-2.05,0L41.31,250.86A.63.63,0,0,0,41.31,252.05Z" style="fill:#fff;opacity:0.8"></path><path d="M153.85,252.49,104,223.7a1.25,1.25,0,0,1,0-2.37l65.3-37.7a4.51,4.51,0,0,1,4.11,0l49.87,28.79a1.25,1.25,0,0,1,0,2.37L158,252.49A4.51,4.51,0,0,1,153.85,252.49Z" style="fill:#455a64"></path><path d="M159.76,241.52a19.34,19.34,0,0,1-9.41-2.24c-2.57-1.49-4-3.49-4-5.64s1.42-4.14,4-5.63c5.19-3,13.62-3,18.81,0,2.58,1.49,4,3.49,4,5.63s-1.42,4.15-4,5.64A19.3,19.3,0,0,1,159.76,241.52Zm0-15.05a18.49,18.49,0,0,0-9,2.16c-2.35,1.35-3.64,3.14-3.64,5s1.29,3.66,3.64,5c5,2.88,13.11,2.88,18.09,0,2.35-1.36,3.64-3.14,3.64-5s-1.29-3.66-3.64-5A18.48,18.48,0,0,0,159.76,226.47Z" style="fill:#e0e0e0"></path><path d="M136.62,228.16a19.16,19.16,0,0,1-9.4-2.24c-2.58-1.49-4-3.49-4-5.63s1.42-4.15,4-5.64c5.18-3,13.62-3,18.8,0h0c2.58,1.49,4,3.49,4,5.64s-1.42,4.14-4,5.63A19.19,19.19,0,0,1,136.62,228.16Zm0-15a18.52,18.52,0,0,0-9.05,2.16c-2.35,1.36-3.64,3.14-3.64,5s1.29,3.66,3.64,5c5,2.88,13.11,2.88,18.09,0,2.35-1.35,3.65-3.14,3.65-5s-1.3-3.67-3.65-5h0A18.45,18.45,0,0,0,136.62,213.11Z" style="fill:#e0e0e0"></path><path d="M190.6,223.71a19.32,19.32,0,0,1-9.4-2.24c-2.58-1.49-4-3.49-4-5.64s1.42-4.14,4-5.63c5.19-3,13.62-3,18.81,0,2.57,1.49,4,3.49,4,5.63s-1.42,4.15-4,5.64A19.34,19.34,0,0,1,190.6,223.71Zm0-15.05a18.48,18.48,0,0,0-9,2.16c-2.35,1.35-3.64,3.13-3.64,5s1.29,3.66,3.64,5c5,2.88,13.1,2.88,18.09,0,2.35-1.36,3.64-3.14,3.64-5s-1.29-3.66-3.64-5h0A18.49,18.49,0,0,0,190.6,208.66Z" style="fill:#e0e0e0"></path><path d="M167.47,210.35a19.16,19.16,0,0,1-9.4-2.24c-2.58-1.49-4-3.49-4-5.63s1.42-4.15,4-5.64c5.18-3,13.62-3,18.8,0h0c2.58,1.49,4,3.49,4,5.64s-1.42,4.14-4,5.63A19.19,19.19,0,0,1,167.47,210.35Zm0-15a18.52,18.52,0,0,0-9.05,2.16c-2.35,1.35-3.64,3.14-3.64,5s1.29,3.66,3.64,5c5,2.88,13.11,2.88,18.09,0,2.35-1.35,3.65-3.14,3.65-5s-1.3-3.67-3.65-5h0A18.48,18.48,0,0,0,167.47,195.3Z" style="fill:#e0e0e0"></path><path d="M161.81,268.08l57.59-33.25c1.13-.66,2-.12,2,1.19v56.32a4.56,4.56,0,0,1-2,3.56l-57.59,33.24c-1.13.66-2.05.13-2.05-1.18V271.64A4.54,4.54,0,0,1,161.81,268.08Z" style="fill:#455a64"></path><path d="M164.75,323.22a1.55,1.55,0,0,1-.77-.2,1.89,1.89,0,0,1-.84-1.74V273.86a5,5,0,0,1,2.29-4L215.3,241.1a1.72,1.72,0,0,1,2.77,1.6v47.41a5,5,0,0,1-2.29,4L165.9,322.87A2.21,2.21,0,0,1,164.75,323.22Zm1.16-52.51a4.09,4.09,0,0,0-1.82,3.15v47.42a.79.79,0,0,0,1.34.77l49.87-28.79a4.08,4.08,0,0,0,1.82-3.15V242.7a1,1,0,0,0-.36-.92,1,1,0,0,0-1,.14Z" style="fill:#37474f"></path><path d="M161.81,333.6l57.59-33.25c1.13-.66,2-.12,2,1.19v8.61a4.56,4.56,0,0,1-2,3.56L161.86,347c-1.14.65-2.06.12-2.07-1.19l0-8.63A4.51,4.51,0,0,1,161.81,333.6Z" style="fill:#455a64"></path><path d="M121.2,292.79c0,.69,2.08,0,4.64-1.43l6.13-3.52c2.57-1.49,4.65-3.26,4.65-4v-1.26l-15.42,8.91Z" style="fill:#455a64"></path><path d="M244.59,221.55c0,.69,2.08,0,4.65-1.43l6.12-3.53c2.57-1.48,4.65-3.25,4.65-4v-1.26l-15.42,8.91Z" style="fill:#455a64"></path><path d="M310.14,223.77c0,.7-2.08.06-4.65-1.42l-6.12-3.53c-2.57-1.48-4.65-3.26-4.65-3.95v-1.26l15.42,8.9Z" style="fill:#455a64"></path><path d="M364.13,254.94c0,.7-2.08.06-4.65-1.42L353.35,250c-2.56-1.48-4.65-3.26-4.65-4v-1.25l15.43,8.9Z" style="fill:#455a64"></path><path d="M364.13,281.65c0,.7-2.08.06-4.65-1.42l-6.13-3.53c-2.56-1.48-4.65-3.26-4.65-3.95v-1.26l15.43,8.91Z" style="fill:#455a64"></path><path d="M364.13,308.37c0,.7-2.08.06-4.65-1.42l-6.13-3.53c-2.56-1.48-4.65-3.26-4.65-4v-1.25l15.43,8.9Z" style="fill:#455a64"></path><polygon points="329.42 251.45 383.41 282.62 383.41 284.85 329.42 253.68 329.42 251.45" style="fill:#e6e6e6"></polygon><polygon points="329.42 278.17 383.41 309.34 383.41 311.56 329.42 280.4 329.42 278.17" style="fill:#e6e6e6"></polygon></g><g id="Eggs--inject-121"><path d="M58.67,250.13l17.33-10a3.41,3.41,0,0,1,3.11,0l43.63,25.18a.94.94,0,0,1,0,1.79l-17.32,10a3.41,3.41,0,0,1-3.11,0L58.67,251.92A1,1,0,0,1,58.67,250.13Z" style="opacity:0.15"></path><path d="M73.31,248.86c0,2.69-2.18,5.73-4.87,5.73s-4.88-3-4.88-5.73a4.88,4.88,0,0,1,9.75,0Z" style="fill:#EC2762"></path><path d="M73.31,248.86c0,2.69-2.18,5.73-4.87,5.73s-4.88-3-4.88-5.73a4.88,4.88,0,0,1,9.75,0Z" style="opacity:0.6000000000000001"></path><path d="M82.05,253.9c0,2.69-2.19,5.73-4.88,5.73s-4.87-3-4.87-5.73a4.88,4.88,0,0,1,9.75,0Z" style="fill:#EC2762"></path><path d="M82.05,253.9c0,2.69-2.19,5.73-4.88,5.73s-4.87-3-4.87-5.73a4.88,4.88,0,0,1,9.75,0Z" style="opacity:0.6000000000000001"></path><path d="M90.78,259c0,2.69-2.18,5.73-4.87,5.73S81,261.64,81,259a4.87,4.87,0,0,1,9.74,0Z" style="fill:#EC2762"></path><path d="M90.78,259c0,2.69-2.18,5.73-4.87,5.73S81,261.64,81,259a4.87,4.87,0,0,1,9.74,0Z" style="opacity:0.6000000000000001"></path><path d="M99.52,264c0,2.69-2.18,5.73-4.87,5.73s-4.87-3-4.87-5.73a4.87,4.87,0,1,1,9.74,0Z" style="fill:#EC2762"></path><path d="M99.52,264c0,2.69-2.18,5.73-4.87,5.73s-4.87-3-4.87-5.73a4.87,4.87,0,1,1,9.74,0Z" style="opacity:0.6000000000000001"></path><path d="M108.26,269.06c0,2.69-2.18,5.72-4.88,5.72s-4.87-3-4.87-5.72a4.88,4.88,0,1,1,9.75,0Z" style="fill:#EC2762"></path><path d="M108.26,269.06c0,2.69-2.18,5.72-4.88,5.72s-4.87-3-4.87-5.72a4.88,4.88,0,1,1,9.75,0Z" style="opacity:0.6000000000000001"></path><path d="M117.9,263.4c0,2.69-2.18,5.72-4.87,5.72s-4.88-3-4.88-5.72a4.88,4.88,0,1,1,9.75,0Z" style="fill:#EC2762"></path><path d="M117.9,263.4c0,2.69-2.18,5.72-4.87,5.72s-4.88-3-4.88-5.72a4.88,4.88,0,1,1,9.75,0Z" style="opacity:0.6000000000000001"></path><path d="M123.38,260.45a1.1,1.1,0,0,0-.64-.9L79.11,234.38a3.41,3.41,0,0,0-3.11,0l-17.33,10a1.07,1.07,0,0,0-.64.89c0,.31,0,1.39,0,1.69a1.09,1.09,0,0,0,.64.9L102.31,273a3.47,3.47,0,0,0,3.11,0l17.32-10a1.1,1.1,0,0,0,.64-.9Z" style="fill:#EC2762"></path><path d="M123.38,260.45a1.1,1.1,0,0,0-.64-.9L79.11,234.38a3.41,3.41,0,0,0-3.11,0l-17.33,10a1.07,1.07,0,0,0-.64.89c0,.31,0,1.39,0,1.69a1.09,1.09,0,0,0,.64.9L102.31,273a3.47,3.47,0,0,0,3.11,0l17.32-10a1.1,1.1,0,0,0,.64-.9Z" style="opacity:0.2"></path><path d="M103.89,271.73v1.68a3.16,3.16,0,0,1-1.58-.38L58.68,247.86A1.1,1.1,0,0,1,58,247c0-.3,0-1.38,0-1.68a1.1,1.1,0,0,0,.65.89l43.63,25.18A3.27,3.27,0,0,0,103.89,271.73Z" style="opacity:0.1"></path><path d="M58.67,244.38l17.33-10a3.41,3.41,0,0,1,3.11,0l43.63,25.17a1,1,0,0,1,0,1.8l-17.32,10a3.41,3.41,0,0,1-3.11,0L58.67,246.17A1,1,0,0,1,58.67,244.38Z" style="fill:#EC2762"></path><path d="M106.75,267.69c1.87-1.08,1.87-2.82,0-3.89a7.5,7.5,0,0,0-6.75,0c-1.87,1.07-1.88,2.81,0,3.88A7.48,7.48,0,0,0,106.75,267.69Z" style="opacity:0.1"></path><path d="M116.4,262.12c1.86-1.08,1.86-2.82,0-3.89a7.48,7.48,0,0,0-6.74,0c-1.88,1.07-1.88,2.81,0,3.88A7.5,7.5,0,0,0,116.4,262.12Z" style="opacity:0.1"></path><path d="M98,262.64c1.86-1.08,1.87-2.82,0-3.89a7.48,7.48,0,0,0-6.74,0c-1.88,1.07-1.88,2.81,0,3.88A7.5,7.5,0,0,0,98,262.64Z" style="opacity:0.1"></path><path d="M107.66,257.07c1.86-1.08,1.87-2.82,0-3.89a7.5,7.5,0,0,0-6.75,0c-1.87,1.07-1.88,2.81,0,3.88A7.5,7.5,0,0,0,107.66,257.07Z" style="opacity:0.1"></path><path d="M89.28,257.59c1.86-1.08,1.87-2.82,0-3.89a7.53,7.53,0,0,0-6.75,0c-1.87,1.07-1.88,2.81,0,3.88A7.5,7.5,0,0,0,89.28,257.59Z" style="opacity:0.1"></path><path d="M98.92,252c1.86-1.08,1.87-2.82,0-3.89a7.53,7.53,0,0,0-6.75,0c-1.87,1.07-1.88,2.81,0,3.88A7.48,7.48,0,0,0,98.92,252Z" style="opacity:0.1"></path><path d="M80.54,252.54c1.86-1.08,1.87-2.82,0-3.88a7.5,7.5,0,0,0-6.75,0c-1.87,1.07-1.88,2.81,0,3.88A7.48,7.48,0,0,0,80.54,252.54Z" style="opacity:0.1"></path><path d="M90.19,247c1.86-1.08,1.86-2.82,0-3.88a7.48,7.48,0,0,0-6.74,0c-1.88,1.07-1.89,2.81,0,3.88A7.5,7.5,0,0,0,90.19,247Z" style="opacity:0.1"></path><path d="M71.81,247.49c1.86-1.08,1.86-2.82,0-3.88a7.48,7.48,0,0,0-6.74,0c-1.88,1.07-1.88,2.81,0,3.88A7.5,7.5,0,0,0,71.81,247.49Z" style="opacity:0.1"></path><path d="M81.45,241.92c1.86-1.08,1.87-2.82,0-3.88a7.48,7.48,0,0,0-6.74,0c-1.88,1.07-1.88,2.81,0,3.88A7.5,7.5,0,0,0,81.45,241.92Z" style="opacity:0.1"></path><path d="M117.55,260.09a1.69,1.69,0,0,1,0,.23,3.62,3.62,0,0,1-.15.94,3.18,3.18,0,0,1-1,.85,7.45,7.45,0,0,1-6.74,0,3.21,3.21,0,0,1-1-.83,5.17,5.17,0,0,1-.16-1v-.46c0-.2,0-.4,0-.59a9.09,9.09,0,0,1,2.61-5.58,2.64,2.64,0,0,1,3.75,0,9,9,0,0,1,2.6,5.53c0,.21,0,.43,0,.64A1.77,1.77,0,0,1,117.55,260.09Z" style="fill:#fffffa"></path><path d="M108.81,255v.23a4.85,4.85,0,0,1-.15.94,3.18,3.18,0,0,1-1,.85,7.42,7.42,0,0,1-6.74,0,3.21,3.21,0,0,1-1-.83,3.86,3.86,0,0,1-.16-1c0-.07,0-.15,0-.23s0-.16,0-.23,0-.4,0-.6a9,9,0,0,1,2.61-5.57,2.64,2.64,0,0,1,3.75,0,8.93,8.93,0,0,1,2.6,5.52c0,.22,0,.43,0,.65Z" style="fill:#fffffa"></path><path d="M107.91,265.66a1.69,1.69,0,0,1,0,.23,3.62,3.62,0,0,1-.15.94,3.18,3.18,0,0,1-1,.85,7.45,7.45,0,0,1-6.74,0,3.21,3.21,0,0,1-1-.83,4.47,4.47,0,0,1-.16-1c0-.07,0-.15,0-.23s0-.16,0-.23,0-.4,0-.59a9,9,0,0,1,2.61-5.58,2.64,2.64,0,0,1,3.75,0,9,9,0,0,1,2.6,5.53c0,.21,0,.43,0,.64A1.69,1.69,0,0,1,107.91,265.66Z" style="fill:#fffffa"></path><path d="M99.17,260.61a1.69,1.69,0,0,1,0,.23,3.69,3.69,0,0,1-.15.94,3.18,3.18,0,0,1-1,.85,7.42,7.42,0,0,1-6.74,0,3.21,3.21,0,0,1-1-.83,5.07,5.07,0,0,1-.16-1v-.46c0-.2,0-.4,0-.6a9,9,0,0,1,2.61-5.57,2.64,2.64,0,0,1,3.75,0,9,9,0,0,1,2.6,5.52c0,.22,0,.43,0,.65A1.69,1.69,0,0,1,99.17,260.61Z" style="fill:#fffffa"></path><path d="M100.08,250a1.69,1.69,0,0,1,0,.23,3.62,3.62,0,0,1-.15.94,3.18,3.18,0,0,1-1,.85,7.45,7.45,0,0,1-6.74,0,3.21,3.21,0,0,1-1-.83,3.94,3.94,0,0,1-.16-1c0-.07,0-.15,0-.23s0-.15,0-.23a5.65,5.65,0,0,1,0-.59,9.08,9.08,0,0,1,2.6-5.58,2.66,2.66,0,0,1,3.76,0,9,9,0,0,1,2.6,5.53c0,.21,0,.43,0,.64A1.77,1.77,0,0,1,100.08,250Z" style="fill:#fffffa"></path><path d="M91.34,244.93a1.69,1.69,0,0,1,0,.23,3.69,3.69,0,0,1-.15.94,3.18,3.18,0,0,1-1,.85,7.42,7.42,0,0,1-6.74,0,3.21,3.21,0,0,1-1-.83,4.38,4.38,0,0,1-.16-1v-.46c0-.2,0-.4,0-.6a9,9,0,0,1,2.61-5.57,2.64,2.64,0,0,1,3.75,0,9,9,0,0,1,2.6,5.52c0,.22,0,.43,0,.65A1.69,1.69,0,0,1,91.34,244.93Z" style="fill:#fffffa"></path></g><g id="cooking-pot--inject-121"><path d="M421.46,220.37,387.52,240a7.37,7.37,0,0,1-6.66,0l-37.07-21.41c-1.84-1.06-1.84-2.78,0-3.84l33.94-19.59a7.37,7.37,0,0,1,6.66,0l37.07,21.4C423.3,217.58,423.3,219.31,421.46,220.37Z" style="opacity:0.15"></path><path d="M342.42,211.23a2.34,2.34,0,0,1,1.37-1.88l33.94-19.59a7.37,7.37,0,0,1,6.66,0l37.07,21.41a2.3,2.3,0,0,1,1.37,1.92c0,.64,0,3,0,3.64a2.32,2.32,0,0,1-1.37,1.89l-33.94,19.59a7.37,7.37,0,0,1-6.66,0L343.79,216.8a2.31,2.31,0,0,1-1.37-1.92C342.42,214.23,342.4,211.89,342.42,211.23Z" style="fill:#EC2762"></path><path d="M342.42,211.23a2.34,2.34,0,0,1,1.37-1.88l33.94-19.59a7.37,7.37,0,0,1,6.66,0l37.07,21.41a2.3,2.3,0,0,1,1.37,1.92c0,.64,0,3,0,3.64a2.32,2.32,0,0,1-1.37,1.89l-33.94,19.59a7.37,7.37,0,0,1-6.66,0L343.79,216.8a2.31,2.31,0,0,1-1.37-1.92C342.42,214.23,342.4,211.89,342.42,211.23Z" style="opacity:0.1"></path><path d="M421.46,215,387.52,234.6a7.37,7.37,0,0,1-6.66,0l-37.07-21.41c-1.84-1.06-1.84-2.78,0-3.84l33.94-19.59a7.37,7.37,0,0,1,6.66,0l37.07,21.41C423.3,212.23,423.3,214,421.46,215Z" style="fill:#EC2762"></path><path d="M384.19,235.4V239a6.81,6.81,0,0,0,3.33-.8l34-19.59a2.32,2.32,0,0,0,1.36-1.9c0-.63,0-2.81,0-3.54a2.37,2.37,0,0,1-1.36,1.83l-34,19.59A6.81,6.81,0,0,1,384.19,235.4Z" style="fill:#EC2762"></path><path d="M384.19,235.4V239a6.81,6.81,0,0,0,3.33-.8l34-19.59a2.32,2.32,0,0,0,1.36-1.9c0-.63,0-2.81,0-3.54a2.37,2.37,0,0,1-1.36,1.83l-34,19.59A6.81,6.81,0,0,1,384.19,235.4Z" style="opacity:0.2"></path><path d="M404.34,198.52c11.38,6.57,11.38,17.21,0,23.78s-29.81,6.57-41.19,0-11.37-17.21,0-23.78S393,192,404.34,198.52Z" style="opacity:0.15"></path><path d="M359.2,188.6a.77.77,0,0,0,.39-1.44l-3.13-1.8c-.55-.32-.85-.71-.85-1.09s.39-.92,1.06-1.31l5.83-3.37a6.44,6.44,0,0,1,5.69-.12l3.12,1.81a.78.78,0,0,0,1.05-.28.77.77,0,0,0-.28-1.05L369,178.14a7.89,7.89,0,0,0-7.23.12l-5.83,3.37a3.19,3.19,0,0,0-1.83,2.64,2.84,2.84,0,0,0,1.62,2.42l3.13,1.8A.76.76,0,0,0,359.2,188.6Z" style="fill:#e0e0e0"></path><path d="M356.08,191.76c0-4.08,2.7-8.17,8.1-11.29,10.81-6.24,28.33-6.24,39.14,0,5.4,3.12,8.1,7.2,8.1,11.29v18c0,4.08-2.7,8.17-8.1,11.29-10.81,6.24-28.33,6.24-39.14,0-5.4-3.12-8.1-7.21-8.1-11.3Z" style="fill:#263238"></path><path d="M403.31,180.47c10.81,6.24,10.81,16.35,0,22.59s-28.33,6.24-39.14,0-10.81-16.35,0-22.59S392.51,174.23,403.31,180.47Z" style="fill:#37474f"></path><path d="M401.7,181.82c9.92,5.49,9.92,14.4,0,19.89s-26,5.5-35.91,0-9.91-14.4,0-19.89S391.79,176.32,401.7,181.82Z" style="fill:#263238"></path><path d="M365.79,188.7c9.92-5.49,26-5.49,35.91,0,3.37,1.86,5.59,4.12,6.67,6.51-1.08,2.38-3.3,4.64-6.67,6.5-9.91,5.49-26,5.5-35.91,0-3.36-1.86-5.58-4.12-6.66-6.5C360.21,192.82,362.43,190.56,365.79,188.7Z" style="fill:#EC2762"></path><path d="M402.85,212.78a7.68,7.68,0,0,0,3.8-.94l5.83-3.37a3.17,3.17,0,0,0,1.82-2.63,2.88,2.88,0,0,0-1.63-2.44l-3.14-1.81a.78.78,0,0,0-1.06.28.77.77,0,0,0,.29,1l3.14,1.82c.56.32.86.71.86,1.1s-.38.92-1.05,1.3l-5.83,3.37a6.41,6.41,0,0,1-5.69.12l-3.12-1.8a.76.76,0,0,0-1.05.28.77.77,0,0,0,.28,1l3.12,1.8A7,7,0,0,0,402.85,212.78Z" style="fill:#e0e0e0"></path><path d="M405.11,195.59a27,27,0,0,0-5.3-19.37c-2.37-3.05-8.8-5.44-12.5-6.43-3-.79-6.84-1.76-8.45-4.82a6,6,0,0,1-.6-2.72,11.56,11.56,0,0,1,2-6.09c2.33-3.66,7.19-6.66,5.34-11.63-.86-2.32-3.07-4.58-5.74-4.4a6.78,6.78,0,0,0-1.79.36,4.82,4.82,0,0,0-2.25,1.78c1.26-.48,4.45-1.34,5.87,2.27s-5.31,7.77-7.93,9.69c-2.92,2.15-5.89,4.68-7,8.25-1,3.14-.08,6.39,1.48,9.17s2.6,5.6,1.89,9c-.63,3.09-2.45,5.21-4.52,7.44s-3.93,4.56-3.93,7.79C368.26,206.3,400.09,207,405.11,195.59Z" style="fill:#e0e0e0;opacity:0.5"></path></g></g><g id="Character--inject-121"><g id="character--inject-121"><g id="Botom--inject-121"><path d="M233.57,365.62c3.42,2,7.83,1.93,12,.34l2.78-22.44-14.17,1.38Z" style="fill:#ffa8a7"></path><path d="M275.89,354.44c2.85,6.32,7.53,4.52,13.24.41l.17-23.27-14.7.76Z" style="fill:#ffa8a7"></path><path d="M258.29,387.68c.37.37.18,2.82-.26,3.47s-3.13,2.84-7.84,3c-4.49.19-8.48-.53-11.06-2.28s-3.8-3.64-4-6.2.18-5-1-7-2.8-3.95-3.16-4.94c-.78-2.17.13-5.2.13-5.2Z" style="fill:#263238"></path><path d="M246.65,365a11.93,11.93,0,0,0,.46,2.86,25.86,25.86,0,0,0,2.58,5.7,22.84,22.84,0,0,0,1.79,2.69c1.31,1.65,3,3,4.34,4.62a9.16,9.16,0,0,1,2.61,5.59c.08,3.52-3.77,4.6-6.72,5a21.69,21.69,0,0,1-9.54-.77,8.76,8.76,0,0,1-6.22-7.2c-.14-1,0-2-.13-3a14,14,0,0,0-2.55-6.24,18,18,0,0,1-2-3.41c-.85-2.2-.05-4.63.6-6.78.57-1.86,1.2-4,1.86-3.76a2.41,2.41,0,0,0,.12,1.13,4.91,4.91,0,0,1,.48,1.12,9.27,9.27,0,0,0,.49,1.46,3.85,3.85,0,0,0,1.51,1.77c.09-1.32.17-2.65.25-4a1.87,1.87,0,0,1,.35-1.16,1.81,1.81,0,0,1,1.13-.45,24.92,24.92,0,0,1,7.55-.4,1.38,1.38,0,0,1,1,.47,1.45,1.45,0,0,1,.14.9A36.57,36.57,0,0,0,246.65,365Z" style="fill:#455a64"></path><path d="M313.83,368.69a4.3,4.3,0,0,1-.16,3.14c-.43.92-5.2,3.64-11.66,3.25a26.85,26.85,0,0,1-13.38-4.59c-2.47-1.61-5-1.9-8.23-2.07s-7.41-1.73-8.12-3.22.08-4.07.08-4.07Z" style="fill:#263238"></path><path d="M287.77,349l1.67-.63a1.37,1.37,0,0,1,.95-.11c.41.15.58.64.69,1.06a16,16,0,0,0,.72,2.8,6.86,6.86,0,0,0,1.83,1.89,29,29,0,0,0,5.18,3.3c2.12,1.13,4.19,2,6.37,3s5.18,1.58,6.93,2.74c2.54,1.69,2.89,6,0,7.69-2.48,1.48-9,3.1-15.91,1.19-3.75-1-7.93-5-12.84-5.36-3.13-.23-9-1.07-11.07-3.43-.75-1.05.23-4.39,1-7.28.87-3.14,1.18-8.06,2.23-7.79.08,1,1,1.64,1.54,2.52a18.06,18.06,0,0,1,1.13,2.49,4.62,4.62,0,0,0,1.65,2.14,2.1,2.1,0,0,0,2.53-.16c.91-1,.36-2.62,1-3.77a4,4,0,0,1,2.19-1.45Z" style="fill:#455a64"></path><path d="M238.86,201.38c-1.54,24.61-4,78.9-4,78.9-.35,3.05-1.48,10.4-2,21.43-.81,16-.83,51.69-.83,51.69s9,4,16.09,1.24c0,0,8-50.9,10.86-66.61,2.56-13.8,7.55-39.8,7.55-39.8l2.33,33.64a110.31,110.31,0,0,0,.54,20.32c.91,7.29,4.28,39.83,4.28,39.83s9.06,2.7,17.21-.73c0,0,.67-51.71,1-58.43.38-7.66,2-86.42,2-86.42Z" style="fill:#37474f"></path><path d="M266.45,248.23l4.24-20.07s10.13-.58,15.87-6c0,0-1.16,5.49-13.95,8.43l-4.25,20.31-.42,18.89Z" style="fill:#263238"></path></g><path d="M337.4,142.63c-5.38,11-10,19-14.39,26.31-3.35,5.61-7.95,12.33-12.95,10.11-2-.87-7-5.17-9.16-7.68-13.8-15.73-17.19-24.78-23.24-35l3.52-16.05c9.78-.3,13.1,7.86,18.21,17,4.65,8.27,8.26,14.84,12,20.59,5.65-8.21,13-18.25,16.91-24.06,3.63-5.37,6.92-10,9.94-12.75s7.42-4.5,9.85-1.08,3.75,11.64,1.32,14.65-4.43,3.71-7.16,5.14S338.26,140.87,337.4,142.63Z" style="fill:#ffa8a7"></path><path d="M337.89,127.33l-.68,1.2s1.18,4.25-1.11,7.16a6.72,6.72,0,0,0,2.4-2.58s1.66,4.35,2.52,6.06a6.38,6.38,0,0,0,.61,1c.21-.1.43-.19.66-.32.86-.45,1.65-.83,2.39-1.23C342.4,134.15,337.89,127.33,337.89,127.33Z" style="fill:#f28f8f"></path><path d="M336,114.78l-4.39,2.45c2.94,5.27,8.69,18,10.75,21.64a3.7,3.7,0,1,0,6.45-3.61C346.7,131.58,338.9,120,336,114.78Z" style="fill:#37474f"></path><ellipse cx="333.75" cy="116" rx="2.52" ry="1.45" transform="translate(-14.15 177.72) rotate(-29.23)" style="fill:#455a64"></ellipse><path d="M333.93,116.31a.36.36,0,0,1-.48-.13L318.24,89a.34.34,0,0,1,.13-.47.35.35,0,0,1,.48.13l15.21,27.19A.36.36,0,0,1,333.93,116.31Z" style="fill:#e0e0e0"></path><path d="M334.61,115.87a.35.35,0,0,1-.48-.13c-5.38-9.62-5.69-13.25-6-16.44a17.69,17.69,0,0,0-1-5.2c-1-2.78-2.49-4.6-4.25-5.25a5,5,0,0,0-4.11.41.34.34,0,0,1-.47-.13.35.35,0,0,1,.13-.48,5.62,5.62,0,0,1,4.69-.46c2,.74,3.56,2.65,4.66,5.67a18.58,18.58,0,0,1,1.07,5.38c.26,3.12.56,6.67,5.87,16.16A.33.33,0,0,1,334.61,115.87Z" style="fill:#e0e0e0"></path><path d="M334.18,115.1a.36.36,0,0,1-.48-.14,99.31,99.31,0,0,1-8.11-17.43c-.18-.53-.37-1-.55-1.56-1.29-3.51-3.34-5.63-4.8-6.17a1.46,1.46,0,0,0-1.16,0,.35.35,0,0,1-.47-.13.35.35,0,0,1,.13-.48,2.08,2.08,0,0,1,1.75,0c1.49.55,3.75,2.61,5.2,6.58.19.51.37,1,.56,1.56,1.27,3.57,2.84,8,8.06,17.33A.35.35,0,0,1,334.18,115.1Z" style="fill:#e0e0e0"></path><path d="M333,112.93a.35.35,0,0,1-.47-.14c-2.86-5.11-2.8-9.16-2.75-12.74,0-3,.08-5.5-1.43-8.2-1.89-3.37-4.93-4.55-8.13-3.15a.35.35,0,0,1-.28-.64c3.57-1.55,6.94-.26,9,3.45,1.6,2.86,1.56,5.63,1.52,8.56-.05,3.48-.11,7.43,2.66,12.38A.36.36,0,0,1,333,112.93Z" style="fill:#e0e0e0"></path><path d="M333.2,116.66a.35.35,0,0,1-.48-.13c-5.31-9.49-8.17-11.6-10.7-13.46a18.36,18.36,0,0,1-4-3.72c-2-2.53-2.8-4.86-2.39-6.94a5.63,5.63,0,0,1,2.84-3.76.36.36,0,0,1,.48.14.35.35,0,0,1-.14.47,4.93,4.93,0,0,0-2.49,3.28c-.37,1.85.41,4,2.25,6.37a17.75,17.75,0,0,0,3.89,3.6c2.58,1.9,5.51,4,10.89,13.68A.33.33,0,0,1,333.2,116.66Z" style="fill:#e0e0e0"></path><path d="M332.76,115.89a.36.36,0,0,1-.48-.14c-5.22-9.33-8.17-13-10.55-15.93-.35-.44-.7-.86-1-1.29-2.63-3.32-3.2-6.33-2.89-7.89a2,2,0,0,1,.93-1.47.37.37,0,0,1,.48.13.36.36,0,0,1-.14.48,1.41,1.41,0,0,0-.58,1c-.31,1.53.42,4.38,2.74,7.31l1,1.29c2.39,3,5.36,6.65,10.61,16A.35.35,0,0,1,332.76,115.89Z" style="fill:#e0e0e0"></path><path d="M331.53,113.75a.36.36,0,0,1-.48-.14c-2.76-5-6.16-7-9.16-8.75-2.52-1.49-4.89-2.91-6.49-5.77-2.08-3.71-1.42-7.26,1.78-9.49a.34.34,0,0,1,.48.09.35.35,0,0,1-.08.48c-2.87,2-3.46,5.21-1.57,8.58,1.51,2.7,3.7,4,6.24,5.51,3.07,1.83,6.55,3.9,9.41,9A.35.35,0,0,1,331.53,113.75Z" style="fill:#e0e0e0"></path><path d="M341.3,119c-2.23,1.89-2.79,6.87-2.23,9.61s1.75,6,3.44,6.89,5.86-.87,5.86-.87Z" style="fill:#ffa8a7"></path><path d="M339,128.29c-.14-1.79,1.26-2.42,2.28-4.12s0-3.9-.34-4.88C339.08,121.3,338.57,125.66,339,128.29Z" style="fill:#f28f8f"></path><path d="M329,132.82c.67-2.34,2.1-7.09,3.39-8.58s4.61-3.66,6.51-5.56,3.4,2.78,1.46,5.09a28.37,28.37,0,0,0-3.18,4.76Z" style="fill:#ffa8a7"></path><path d="M278.33,120c4.11-.12,8.69-1.13,13.49,4.39S311.45,157,311.45,157l5.15-7.76,13.1,9.94s-8.72,15-11.56,18.4-6.91,4.21-11.27.94-25.69-30.1-25.69-30.1Z" style="fill:#e6e6e6"></path><polygon points="314.04 153.1 327.39 163.12 326.86 164 314.04 153.1" style="fill:#455a64"></polygon><path d="M244.68,121.09s-12.51,1.87-11.9,18.24l3.81,29.6,1.52,35.83c8.07,9.15,43.87,8.48,56.13-.73,0,0,.83-45.82,0-63.65-.59-12.66-5.08-20.88-18.37-20.35l-15.12.09Z" style="fill:#f0f0f0"></path><path d="M203.45,171l34.05-24.58c8.79-7.77,8.2-21.42,7.18-25.36-8.45.22-13.76.55-27.09,13.08-9,8.46-27.5,24.07-31.14,28.94" style="fill:#ffa8a7"></path><path d="M246.8,121c-11.4-.61-12.51-1.25-24.52,7.45s-35.56,31.81-37,34.24L203.45,171,240,147.21S247.76,137.69,246.8,121Z" style="fill:#e6e6e6"></path><path d="M277,139.8a1.65,1.65,0,1,1,1.64,1.65A1.64,1.64,0,0,1,277,139.8Z" style="fill:#455a64"></path><circle cx="279.09" cy="151.46" r="1.65" style="fill:#455a64"></circle><path d="M277.89,163.11a1.65,1.65,0,1,1,1.64,1.65A1.64,1.64,0,0,1,277.89,163.11Z" style="fill:#455a64"></path><path d="M278.33,174.77a1.65,1.65,0,1,1,1.65,1.65A1.64,1.64,0,0,1,278.33,174.77Z" style="fill:#455a64"></path><path d="M278.77,186.43a1.65,1.65,0,1,1,1.65,1.64A1.65,1.65,0,0,1,278.77,186.43Z" style="fill:#455a64"></path><path d="M279.22,198.08a1.65,1.65,0,0,1,3.29,0,1.65,1.65,0,1,1-3.29,0Z" style="fill:#455a64"></path><circle cx="265.04" cy="140.98" r="1.65" style="fill:#455a64"></circle><path d="M263.83,152.64a1.65,1.65,0,1,1,3.29,0,1.65,1.65,0,0,1-3.29,0Z" style="fill:#455a64"></path><path d="M264.28,164.29a1.65,1.65,0,0,1,3.29,0,1.65,1.65,0,1,1-3.29,0Z" style="fill:#455a64"></path><path d="M264.72,176a1.65,1.65,0,1,1,3.29,0,1.65,1.65,0,0,1-3.29,0Z" style="fill:#455a64"></path><path d="M265.16,187.6a1.65,1.65,0,1,1,1.65,1.65A1.65,1.65,0,0,1,265.16,187.6Z" style="fill:#455a64"></path><path d="M265.61,199.26a1.65,1.65,0,1,1,1.64,1.65A1.65,1.65,0,0,1,265.61,199.26Z" style="fill:#455a64"></path><path d="M268.74,130.78c6.26.93,15,.81,15.4,4.58.31,3,3.06,69.82,4.19,69.38s-2.51-64.34-2.57-67.81c-.06-3.7-.69-4.66-4.15-5.4S268.74,130.78,268.74,130.78Z" style="fill:#e0e0e0"></path><path d="M256.22,87.05c0,9.41,7.32,17,16.34,17s15-7.72,16.35-17c2.17-15.3-7.32-17-16.35-17S256.22,77.65,256.22,87.05Z" style="fill:#263238"></path><path d="M247.87,93.94s2.51,12.27,3.52,14.29a5.37,5.37,0,0,0,3.08,2.59l-.17-8.64Z" style="fill:#263238"></path><path d="M251,76.36s-1.8-.45-3.71,2.54c-1.63,2.55-2,8.3.56,15l4.73.56Z" style="fill:#263238"></path><path d="M254,94.51c-.94.59-2.29-1.31-3.46-2.58s-4.84-2.47-6.74,1.7,1.34,8.3,4.06,9.65c4.88,2.43,6.43-1.1,6.43-1.1l.39,19.44c6.87,10.62,22.54,12,16.83-.52v-5.91s4.68.74,7,.37c3.81-.61,6.2-3.74,7.35-8,1.86-6.88,2.56-12.45,1-26-1.73-14.85-18.31-15-27.26-9.13S254,94.51,254,94.51Z" style="fill:#ffa8a7"></path><path d="M274.69,80.5a28.63,28.63,0,0,1-5.76-.71A18.46,18.46,0,0,1,263,77.53a9.69,9.69,0,0,1-4.82,7.67,3,3,0,0,0-1.37,1.12,3,3,0,0,0,.07,1.9,4.32,4.32,0,0,1-.1,1.79,29,29,0,0,1-1.08,4.67,2.44,2.44,0,0,1-1.13,1.54c-1.1.49-1.42-.91-1.88-1.54a19,19,0,0,0-2.14-2.75c-.77-.72-.89-2.28-1.06-3.25-.3-1.76-.47-3.55-.6-5.33-.11-1.51-.27-3-.26-4.56a20.56,20.56,0,0,1,.4-5.08c.77-3,3.84-5.54,6.52-6.94,7.84-4.12,16.94-2.95,25.46-2.7a5.5,5.5,0,0,1,3.42.86c1.26,1,1.35,2.88,1.35,4.5,0,.49.91,1.59,1.07,2.18a6.66,6.66,0,0,1,.12,2.74,5.14,5.14,0,0,1-3.13,4,18.27,18.27,0,0,1-7.92,2.12C275.51,80.5,275.1,80.5,274.69,80.5Z" style="fill:#263238"></path><path d="M271.51,115.19s-8.5-1.78-11.46-3.43a10,10,0,0,1-4.11-4.23,14.27,14.27,0,0,0,2.33,5c2.17,2.89,13.24,5,13.24,5Z" style="fill:#f28f8f"></path><path d="M269.47,92.3a1.71,1.71,0,1,1-1.71-1.85A1.79,1.79,0,0,1,269.47,92.3Z" style="fill:#263238"></path><path d="M266.73,85l-3.64,2.09a2.34,2.34,0,0,1,.85-3A2,2,0,0,1,266.73,85Z" style="fill:#263238"></path><path d="M270.74,104.54l3.88,1.52A2,2,0,0,1,272,107.4,2.29,2.29,0,0,1,270.74,104.54Z" style="fill:#f28f8f"></path><path d="M285.08,86.52l-3.32-2.66a2,2,0,0,1,2.88-.47A2.36,2.36,0,0,1,285.08,86.52Z" style="fill:#263238"></path><path d="M283.62,91.79a1.7,1.7,0,1,1-1.7-1.84A1.77,1.77,0,0,1,283.62,91.79Z" style="fill:#263238"></path><polygon points="274.51 90.37 274.71 101.12 280.81 99.72 274.51 90.37" style="fill:#f28f8f"></polygon><path d="M253.2,120.68v-5.31c0-1.59,1.34-1.25,1.34-1.25l.07,2.74a17.83,17.83,0,0,0,4.66,5.67c4.41,3.18,7.37,2.78,7.37,2.78l.93,4.8s-5.44.19-8.72-1.87A12.37,12.37,0,0,1,253.2,120.68Z" style="fill:#e6e6e6"></path><path d="M269.11,130l.83-4.74s1.55-.76,1.58-2,0-2.1,0-2.1v-5.5a1.23,1.23,0,0,1,1.4,1.08c.11,1,.57,8.16.57,8.16S274.61,129.44,269.11,130Z" style="fill:#e6e6e6"></path><path d="M206.81,159.71a36.79,36.79,0,0,0,66.29,31.92Z" style="fill:#EC2762"></path><path d="M206.81,159.71a36.79,36.79,0,0,0,66.29,31.92Z" style="opacity:0.2"></path><path d="M223,150.85c-16.55,1.24-22.38,13.35-13,27.06s30.33,23.81,46.87,22.58,22.38-13.36,13-27.06S239.58,149.61,223,150.85Z" style="fill:#EC2762"></path><path d="M224.19,153.4c-15.05.86-20.18,11.52-11.48,23.82s28,21.58,43,20.72,20.19-11.53,11.48-23.83S239.24,152.54,224.19,153.4Z" style="fill:#EC2762"></path><path d="M224.19,153.4c-15.05.86-20.18,11.52-11.48,23.82s28,21.58,43,20.72,20.19-11.53,11.48-23.83S239.24,152.54,224.19,153.4Z" style="opacity:0.2"></path><path d="M224.19,153.4c-15.05.86-20.18,11.52-11.48,23.82a33.5,33.5,0,0,0,2.2,2.78c0-.05,4.82-6.44,11-14.85,4.15-5.68,12.24-9.19,21.89-6.47C240.06,155,231.61,153,224.19,153.4Z" style="opacity:0.1"></path><path d="M209.72,171.82a26,26,0,0,0,3,5.4c8.71,12.3,28,21.58,43,20.72a24.72,24.72,0,0,0,7.46-1.49c.79-3.81-.13-8.29-3-12.92-7.27-11.61-24.21-19.76-37.82-18.21C216.42,166,212.11,168.38,209.72,171.82Z" style="fill:#b16668"></path><path d="M263.18,196.45a13.6,13.6,0,0,0,.27-2.88c-6.73,2.89-17.29,1.26-30.19-6.46s-15.65-17.7-7.39-22a29.66,29.66,0,0,0-3.54.17c-5.91.67-10.22,3.06-12.61,6.5a26,26,0,0,0,3,5.4c8.71,12.3,28,21.58,43,20.72A24.72,24.72,0,0,0,263.18,196.45Z" style="fill:#9a4a4d"></path><path d="M230.15,202.17a25.65,25.65,0,0,1-6.63-4.91,19.3,19.3,0,0,0,4.59.41,2.75,2.75,0,0,0,2.76-2.56c0-.6-1.51-.44-3.75-1.39-2.87-1.22-4.66-2.45-8-3a6.53,6.53,0,0,1-5-2.35c-7.26-8-9.53-14-10.71-17.38l-17.19-7.66c-3.2,4.6-1.38,7.74,4.05,16.84,3.14,5.25,4.56,7.41,10.71,14.77a87.26,87.26,0,0,0,8.7,9.21c8.77,7.9,14.7,9.73,19.33,7.68C236.46,208.6,235.78,205.09,230.15,202.17Z" style="fill:#ffa8a7"></path><path d="M203.45,171l-18.15-8.38c-1.43,2.42-2,3.76-.68,8.38s8.06,14.52,8.06,14.52l13-9.13Z" style="fill:#e6e6e6"></path><polygon points="190.09 181.57 204.41 173.44 190.67 182.48 190.09 181.57" style="fill:#455a64"></polygon><path d="M246.32,88.53c.51-.55,1.08-1.09,1.67-1.61a37.41,37.41,0,0,1,11.4-6.66h0c9.65-3.68,24.68-5,29.46-1.06l-7.11-38.62c-9-3.21-20.5-2.59-30.15,1.08h0a37.76,37.76,0,0,0-11.4,6.67,21.29,21.29,0,0,0-1.67,1.61Z" style="fill:#EC2762"></path><path d="M246.32,88.53c.51-.55,1.08-1.09,1.67-1.61a37.41,37.41,0,0,1,11.4-6.66h0c9.65-3.68,24.68-5,29.46-1.06l-1.76-9.65c-4.78-3.93-19.81-2.61-29.46,1.06h0a37.56,37.56,0,0,0-11.4,6.67A25.17,25.17,0,0,0,244.4,79Z" style="opacity:0.1"></path><g style="opacity:0.1"><path d="M284.07,64.37l-3.54-20.14s-.08-.43-.17-1A1.65,1.65,0,0,0,279.31,42c-.49-.13-.8.3-.69.93l3.69,21a1.66,1.66,0,0,0,1.09,1.32C283.88,65.41,284.18,65,284.07,64.37Z"></path><path d="M274.24,42.4,278,63.58A1.37,1.37,0,0,0,279,64.76c.47,0,.76-.46.65-1.1L276,42.54a1.44,1.44,0,0,0-1.06-1.23C274.42,41.28,274.12,41.77,274.24,42.4Z"></path><path d="M270,42.4l3.73,21.25c.11.63.58,1.12,1,1.1s.75-.54.63-1.18l-3.72-21.22c-.11-.63-.58-1.15-1-1.13S269.84,41.76,270,42.4Z"></path><path d="M265.72,42.75l3.74,21.31c.12.64.58,1.1,1,1s.74-.61.63-1.24l-3.74-21.3c-.11-.63-.57-1.11-1-1.07S265.61,42.11,265.72,42.75Z"></path><path d="M261.55,43.4l3.75,21.37c.11.64.57,1.07,1,1a1.06,1.06,0,0,0,.62-1.3l-3.75-21.35c-.11-.63-.57-1.09-1-1S261.44,42.76,261.55,43.4Z"></path><path d="M257.43,44.34l3.76,21.43c.11.64.56,1,1,.93a1.16,1.16,0,0,0,.6-1.36L259,43.93c-.11-.63-.56-1.06-1-1A1.15,1.15,0,0,0,257.43,44.34Z"></path><path d="M253.29,44.7a3.33,3.33,0,0,0,.07.92l3.78,21.52c.11.64.45,1.06.75.94l.55-.21.24-.08c.14-.05.16-.6.05-1.23L255,45.07c-.11-.63-.5-1-.87-.93l-.54.2A.49.49,0,0,0,253.29,44.7Z"></path><path d="M249.38,47.34,253.17,69c.11.63.55,1,1,.76a1.48,1.48,0,0,0,.58-1.53l-3.79-21.57c-.11-.63-.56-1-1-.79A1.44,1.44,0,0,0,249.38,47.34Z"></path><path d="M245.48,49.54l3.81,21.73c.11.63.54.91,1,.64a1.72,1.72,0,0,0,.56-1.63L247,48.6c-.11-.63-.55-.94-1-.68A1.67,1.67,0,0,0,245.48,49.54Z"></path><path d="M241.61,51.27a3.08,3.08,0,0,0,.08,1.13l3.91,21.83c.12.64.45.92.76.64l.57-.49.14-.11A3.19,3.19,0,0,0,247,73l-3.83-21.83c-.11-.63-.44-1-.73-.73l-.52.43A1.27,1.27,0,0,0,241.61,51.27Z"></path></g><path d="M244.4,79a25.17,25.17,0,0,1,1.83-1.73,37.56,37.56,0,0,1,11.4-6.67h0a56.6,56.6,0,0,1,13-3.07,51.32,51.32,0,0,0-14.74,4.3c-4.67,2.28-9.87,5.85-11.3,8.08Z" style="opacity:0.1"></path></g></g></svg>
