<?xml version="1.0" encoding="UTF-8"?>
<!DOCTYPE svg PUBLIC "-//W3C//DTD SVG 1.1//EN" "http://www.w3.org/Graphics/SVG/1.1/DTD/svg11.dtd">
<!-- Creator: CorelDRAW 2018 (64-Bit) -->
<svg xmlns="http://www.w3.org/2000/svg" xml:space="preserve" width="1.9917in" height="0.31439in" version="1.1" shape-rendering="geometricPrecision" text-rendering="geometricPrecision" image-rendering="optimizeQuality" fill-rule="evenodd" clip-rule="evenodd"
viewBox="0 0 706.74 111.56"
 xmlns:xlink="http://www.w3.org/1999/xlink">
 <g id="Layer_x0020_1">
  <metadata id="CorelCorpID_0Corel-Layer"/>
  <path fill="black" fill-rule="nonzero" d="M190.32 87.55l-18.2 0 0 -22.89 18.2 0 0 22.89zm-190.32 -34.85l93.63 0 23.75 0 14.07 0 0.01 0.77 0 8.4 -14.01 0 -23.82 0 -93.63 0 0 -9.17zm155.36 0l14.08 0 23.7 0 14.06 0c-3.58,2.18 -6.34,5.18 -7.97,9.17l-6.12 0 -23.78 0 -14.05 0 0 -7.42c0,-0.59 0.03,-1.17 0.08,-1.75zm101.41 0l8.86 0 45.52 0 25.83 0c-3.58,2.18 -6.34,5.18 -7.97,9.17l-16.48 0 -46.91 0 -8.86 0 0 -9.17zm129.77 0l8.86 0 23.67 0 15.2 0c0.04,0.66 0.05,1.33 0.05,1.99l0 7.18 -15.09 0 -23.82 0 -8.86 0 0 -9.17zm71.56 0l48.27 0 12.45 0 12.74 0 0 9.17 -12.74 0 -12.45 0 -25.21 0 -14.16 0 -8.9 0 0 -9.17zm85.93 0l30.9 0 12.53 0 17.85 0c-0.88,0.47 -1.73,0.99 -2.55,1.57 -3.01,2.1 -5.27,4.65 -6.74,7.6l-8.65 0 -12.66 0 -30.68 0 0 -9.17zm103.69 0l13.41 0 45.6 3.21 -29.31 5.96 -29.7 0 0 -9.17zm-12.45 9.17l-22.71 0c3.98,-1.93 8.9,-2.47 13.17,-2.51l9.53 0 0 2.51zm-463.42 -11.96c-0.87,-5.98 -3.94,-8.96 -9.2,-8.96 -3,0 -5.44,1.28 -7.33,3.86 -1.89,2.58 -2.84,5.8 -2.84,9.64l0 33.1 -18.24 0 0 -34.08c0,-8.34 -3.12,-12.52 -9.31,-12.52 -3.11,0 -5.62,1.22 -7.47,3.69 -1.1,1.45 -1.88,3.21 -2.34,5.27l-18.72 0 0 -21.5 18.24 0 0 9.25 0.24 0c1.89,-3.15 4.53,-5.74 7.94,-7.71 3.41,-1.99 7.14,-2.98 11.18,-2.98 8.36,0 14.08,3.67 17.15,11.02 4.52,-7.35 11.12,-11.02 19.87,-11.02 12.62,0 19.04,7.64 19.27,22.94l-18.45 0zm-57.21 14.76l0 22.89 -18.24 0 0 -22.89 18.24 0zm139.32 22.89l-17.27 0 0 -8.5 -0.24 0c-3.96,6.62 -9.84,9.94 -17.62,9.94 -5.74,0 -10.25,-1.62 -13.54,-4.87 -3.29,-3.25 -4.93,-7.61 -4.93,-13.03 0,-11.47 6.8,-18.1 20.38,-19.87l16.07 -2.13c0,-6.47 -3.51,-9.7 -10.53,-9.7 -7.04,0 -13.74,2.09 -20.09,6.29l0 -13.74c2.54,-1.32 6.01,-2.46 10.43,-3.47 4.4,-1.01 8.42,-1.5 12.05,-1.5 16.86,0 25.29,8.42 25.29,25.23l0 35.35zm-17.15 -24.03l0 -3.98 -10.74 1.38c-5.93,0.77 -8.89,3.45 -8.89,8.04 0,2.07 0.71,3.79 2.15,5.11 1.46,1.32 3.41,1.99 5.87,1.99 3.43,0 6.21,-1.18 8.38,-3.55 2.15,-2.37 3.23,-5.36 3.23,-8.99zm90.86 24.03l-21.9 0 -14.73 -22.89 20.06 0 16.57 22.89zm-41.02 -22.89l0 22.89 -18.24 0 0 -22.89 18.24 0zm-18.24 -14.76l0 -49.9 18.24 0 0 49.9 -18.24 0zm22.23 0l13.87 -21.5 21.65 0 -16.4 21.5 -19.11 0zm93.09 37.64l-17.27 0 0 -8.5 -0.24 0c-3.96,6.62 -9.84,9.94 -17.62,9.94 -5.74,0 -10.25,-1.62 -13.54,-4.87 -3.29,-3.25 -4.93,-7.61 -4.93,-13.03 0,-11.47 6.8,-18.1 20.38,-19.87l16.07 -2.13c0,-6.47 -3.51,-9.7 -10.53,-9.7 -7.04,0 -13.74,2.09 -20.09,6.29l0 -13.74c2.54,-1.32 6.01,-2.46 10.43,-3.47 4.4,-1.01 8.42,-1.5 12.05,-1.5 16.86,0 25.29,8.42 25.29,25.23l0 35.35zm-17.15 -24.03l0 -3.98 -10.74 1.38c-5.93,0.77 -8.89,3.45 -8.89,8.04 0,2.07 0.71,3.79 2.15,5.11 1.46,1.32 3.41,1.99 5.87,1.99 3.43,0 6.21,-1.18 8.38,-3.55 2.15,-2.37 3.23,-5.36 3.23,-8.99zm88.71 24.03l-18.19 0 0 -32.86c0,-9.17 -3.27,-13.74 -9.82,-13.74 -3.15,0 -5.76,1.2 -7.79,3.63 -1.28,1.52 -2.17,3.3 -2.65,5.33l-18.67 0 0 -21.5 18.24 0 0 9.36 0.24 0c4.36,-7.21 10.68,-10.8 19,-10.8 13.09,0 19.63,8.12 19.63,24.37l0 36.21zm-38.87 -22.89l0 22.89 -18.24 0 0 -22.89 18.24 0zm94.11 22.89c-0.69,-1.97 -1.14,-4.87 -1.32,-8.71 -2.43,3.15 -5.52,5.6 -9.28,7.31 -3.75,1.72 -7.73,2.58 -11.93,2.58 -5.99,0 -10.86,-1.68 -14.57,-5.03 -3.73,-3.35 -5.58,-7.59 -5.58,-12.71 0,-2.29 0.36,-4.4 1.07,-6.33l7.35 0c-0.99,1.7 -1.49,3.64 -1.49,5.82 0,3.51 1.28,6.43 3.88,8.75 2.6,2.31 5.99,3.47 10.15,3.47 4.61,0 8.73,-1.12 12.38,-3.37 3.63,-2.23 6.29,-5.22 7.94,-8.97l0 -5.7 6.86 0 0 8.62c0,6.05 0.65,10.59 1.91,13.58l0 0.69 -7.39 0zm-1.38 -37.64l0 -5.79c0,-4.47 -1.38,-8 -4.14,-10.57 -2.74,-2.56 -6.76,-3.84 -12.05,-3.84 -4.81,0 -8.79,1.22 -11.95,3.69 -3.15,2.44 -4.73,5.4 -4.73,8.85l-6.94 -0.06c0,-4.95 2.31,-9.23 6.94,-12.85 4.61,-3.61 10.29,-5.42 17.03,-5.42 6.98,0 12.46,1.74 16.48,5.22 4.04,3.49 6.11,8.34 6.21,14.59l0 6.18 -6.86 0zm75 14.76c-0.87,6.21 -2.85,11.38 -5.96,15.49 -4.32,5.72 -10.09,8.58 -17.33,8.58 -8.54,0 -15.08,-3 -19.64,-9.01l0 31.84 -6.88 0 0 -86.46 6.43 0 0.33 8.81c4.52,-6.66 11.04,-10 19.58,-10 7.47,0 13.35,2.84 17.58,8.5 3.36,4.46 5.39,10.29 6.1,17.49l-6.97 0c-0.63,-5.26 -2.15,-9.6 -4.58,-13.02 -3.27,-4.63 -7.85,-6.94 -13.7,-6.94 -4.24,0 -7.87,1.03 -10.9,3.06 -3.06,2.05 -5.38,5.01 -7,8.91l0 29.98c1.66,3.59 4.02,6.33 7.1,8.2 3.1,1.89 6.72,2.84 10.92,2.84 5.82,0 10.35,-2.33 13.6,-6.96 2.06,-2.94 3.47,-6.71 4.23,-11.32l7.08 0zm55.29 22.89c-0.69,-1.97 -1.14,-4.87 -1.32,-8.71 -2.43,3.15 -5.52,5.6 -9.28,7.31 -3.75,1.72 -7.73,2.58 -11.93,2.58 -5.99,0 -10.86,-1.68 -14.57,-5.03 -3.73,-3.35 -5.58,-7.59 -5.58,-12.71 0,-6.07 2.52,-10.9 7.59,-14.43 5.07,-3.55 12.12,-5.32 21.17,-5.32l12.54 0 0 -7.12c0,-4.47 -1.38,-8 -4.14,-10.57 -2.74,-2.56 -6.76,-3.84 -12.05,-3.84 -4.81,0 -8.79,1.22 -11.95,3.69 -3.15,2.44 -4.73,5.4 -4.73,8.85l-6.94 -0.06c0,-4.95 2.31,-9.23 6.94,-12.85 4.61,-3.61 10.29,-5.42 17.03,-5.42 6.98,0 12.46,1.74 16.48,5.22 4.04,3.49 6.11,8.34 6.21,14.59l0 29.55c0,6.05 0.65,10.59 1.91,13.58l0 0.69 -7.39 0zm-21.7 -4.85c4.61,0 8.73,-1.12 12.38,-3.37 3.63,-2.23 6.29,-5.22 7.94,-8.97l0 -13.8 -12.36 0c-6.9,0.08 -12.28,1.34 -16.18,3.81 -3.88,2.44 -5.82,5.81 -5.82,10.11 0,3.51 1.28,6.43 3.88,8.75 2.6,2.31 5.99,3.47 10.15,3.47z"/>
 </g>
</svg>
