<?xml version="1.0" encoding="UTF-8"?>
<!DOCTYPE svg PUBLIC "-//W3C//DTD SVG 1.1//EN" "http://www.w3.org/Graphics/SVG/1.1/DTD/svg11.dtd">
<!-- Creator: CorelDRAW 2018 (64-Bit) -->
<svg xmlns="http://www.w3.org/2000/svg" xml:space="preserve" width="2.14378in" height="0.282988in" version="1.1" shape-rendering="geometricPrecision" text-rendering="geometricPrecision" image-rendering="optimizeQuality" fill-rule="evenodd" clip-rule="evenodd"
viewBox="0 0 760.28 100.36"
 xmlns:xlink="http://www.w3.org/1999/xlink">
 <g id="Layer_x0020_1">
  <metadata id="CorelCorpID_0Corel-Layer"/>
  <path fill="#F2BF23" d="M690.29 62.95c-13.44,46.35 -56.68,44.07 -79,23.06 6.5,-6.98 11.29,-16.06 14.27,-26.07l0.06 -0.19 0.02 -0.2c1.47,-13.91 -1.1,-27.77 -8.95,-38.17 28.58,-21.15 77.84,-6.7 73.6,41.58zm-690.29 -18.92l160.14 0c1.23,6.76 -0.07,12.26 -1.73,17.12l-158.41 0 0 -17.12zm693.75 0l20.96 0 45.57 5.99 -29.3 11.13 -39.39 0c0.7,-3.45 1.32,-6.98 1.88,-10.57l0.06 -0.38 0.02 -0.4c0.09,-1.93 0.16,-3.85 0.2,-5.76zm-534.09 -3.41l-0.34 -3.81 5.31 11.31c1.92,4.08 -1.09,11.28 -3.87,14.52l-5.95 6.92 1.03 -5.63 -38.93 0c14.11,35.35 72.43,50.64 88.02,-7.55 4.4,-56.21 -54.69,-73.35 -80.59,-37.98 -5.45,7.45 -8.59,14.9 -9.85,22.07l45.17 0.14zm123 19.87c-14.59,51.96 -64.93,44.73 -84.41,17.44 4.65,-6.51 8,-14.25 10.18,-22.37l0.05 -0.19 0.01 -0.2c0.86,-10.95 -0.55,-22 -5.18,-31.77 27.18,-30.47 83.91,-16.41 79.34,37.09zm59.7 -4.1c-11.65,43.48 -47.16,45.93 -70.25,29.64 6.41,-7.02 10.96,-16.13 13.74,-26.05l0.06 -0.2 0.02 -0.21c1.6,-18.73 -4.29,-36.68 -19.11,-47.01 27.77,-27.31 79.68,-8.99 75.54,43.82zm77.73 4.1c-14.65,52.15 -65.32,44.68 -84.63,17.13 4.05,-6.14 7.02,-13.24 9,-20.66l0.05 -0.19 0.01 -0.2c0.85,-10.89 -0.54,-21.88 -5.11,-31.61 26.61,-32.47 85.31,-18.85 80.67,35.54zm66.08 -4.28c-12.19,44.09 -51.68,45.45 -74.89,27.79 5.49,-6.71 9.47,-15.03 11.99,-24.02l0.06 -0.2 0.02 -0.21c1.38,-16.22 -2.85,-31.87 -13.65,-42.48 27.8,-25.6 80.23,-10.92 76.47,39.11zm64.28 0.58c-9.33,48.86 -52.38,47.61 -75.42,25.46 6.72,-7.02 11.49,-16.28 14.33,-26.54l0.06 -0.21 0.01 -0.21c1.19,-15.79 -3.18,-30.74 -13.76,-40.99 26.38,-25.52 75,-8.56 74.78,42.49zm71.93 3.62c-14.49,48.57 -59.3,45.38 -80.01,22.42 5.81,-7.44 9.43,-16.89 11.31,-26.72l0.04 -0.2 0 -0.2c0.05,-11.29 -2.28,-22.55 -7.79,-32.22 28.11,-29.72 82.03,-15.82 76.45,36.92z"/>
 </g>
</svg>
